<svg xmlns="http://www.w3.org/2000/svg" xmlns:xlink="http://www.w3.org/1999/xlink"><symbol id="a" viewBox="0 0 64 64"><path d="M48.148 18.941a15.65 15.65 0 00-3.761.473C40.944 15.488 35.934 13 30.337 13c-8.18 0-15.119 5.295-17.7 12.672-.037 0-.073-.005-.11-.005C5.607 25.667 0 31.337 0 38.333S5.608 51 12.526 51h35.622C56.903 51 64 43.823 64 34.97c0-8.852-7.097-16.029-15.852-16.029zm0 29.96H12.526C6.777 48.9 2.1 44.16 2.1 38.333c0-5.808 4.649-10.537 10.374-10.567l.147.006 1.503.012.496-1.419C16.976 19.627 23.293 15.1 30.337 15.1c4.75 0 9.296 2.078 12.471 5.7l.842.959 1.24-.306a13.65 13.65 0 013.258-.412c7.583 0 13.753 6.25 13.753 13.93S55.73 48.9 48.148 48.9z"/></symbol><symbol id="b" viewBox="0 0 64 64"><path d="M48.792 22.614c-.477 0-.957.023-1.434.067A18.53 18.53 0 0030.142 11c-9.659 0-17.587 7.31-18.44 16.808C5.17 28.282 0 33.743 0 40.387c0 6.955 5.663 12.612 12.624 12.612h36.167c8.386 0 15.207-6.815 15.207-15.192 0-8.377-6.821-15.193-15.207-15.193zm0 28.387H12.625c-5.86 0-10.626-4.762-10.626-10.614 0-5.852 4.767-10.614 10.64-10.614a1 1 0 001-.958C13.999 19.946 21.248 13 30.142 13c7.034 0 13.307 4.459 15.609 11.095.158.455.627.731 1.09.662a13.41 13.41 0 011.951-.144c7.283 0 13.209 5.92 13.209 13.195S56.075 51 48.792 51z"/><path fill="currentColor" d="M32.497 25.404l.78-.67a1 1 0 00-1.302-1.518l-2.827 2.428a1 1 0 00-.107 1.41l2.428 2.827a.998.998 0 001.41.107 1 1 0 00.107-1.41l-1.066-1.241c3.726.379 6.642 3.534 6.642 7.357 0 4.078-3.317 7.397-7.395 7.397s-7.396-3.319-7.396-7.397a1 1 0 10-2 0c0 5.182 4.215 9.397 9.396 9.397 5.18 0 9.395-4.215 9.395-9.397 0-4.728-3.514-8.64-8.065-9.29z"/></symbol><view viewBox="0 0 64 64"/><view viewBox="0 60 64 64"/><view viewBox="0 120 64 64"/><view viewBox="0 180 64 64"/><use xlink:href="#a" width="64" height="64"/><use xlink:href="#a" width="64" height="64" y="60" fill="#2dd3fc"/><use xlink:href="#b" width="64" height="64" y="120"/><use xlink:href="#b" width="64" height="64" y="180" fill="#2dd3fc" color="#2dd3fc"/></svg>