<svg width="0" height="0" class="hidden">
  <symbol xmlns="http://www.w3.org/2000/svg" viewBox="0 0 35 25" id="after-install-1">
    <path d="M22.273 12.5a6.251 6.251 0 1 0-6.364-6.25 6.324 6.324 0 0 0 6.364 6.25zM7.954 9.37V4.69H4.773v4.68H0v3.13h4.773v4.69h3.181V12.5h4.773V9.37H7.954zm14.319 6.25c-4.3 0-12.728 2.04-12.728 6.25V25H35v-3.13c0-4.21-8.432-6.25-12.727-6.25z" fill="#fff" fill-rule="evenodd"></path>
  </symbol>
  <symbol xmlns="http://www.w3.org/2000/svg" viewBox="0 0 29 23" id="after-install-2">
    <path d="M24.568 0l-14.5 14.27-5.636-5.55L0 13.09 10.068 23 29 4.36z" fill="#fff" fill-rule="evenodd"></path>
  </symbol>
  <symbol xmlns="http://www.w3.org/2000/svg" viewBox="0 0 40 26" id="after-install-3">
    <path d="M39.952 1.3l-.343 2.46c-.119.82-.249 1.61-.379 2.42l-.083.48c-.391 2.31-.735 4.19-1.1 5.91-.4 1.93-.866 3.99-1.5 6.1a32.966 32.966 0 0 1-1.091 3.1 16.725 16.725 0 0 1-.746 1.56 8.077 8.077 0 0 1-1.09 1.56 4.09 4.09 0 0 1-.806.68 2.709 2.709 0 0 1-1.079.4 2.28 2.28 0 0 1-1.149-.13 3.81 3.81 0 0 1-.936-.53 7.029 7.029 0 0 1-1.28-1.43 16.918 16.918 0 0 1-.9-1.49 31.669 31.669 0 0 1-1.374-3c-.427-1.05-.83-2.11-1.162-3-.213-.59-.426-1.17-.64-1.76-.521-1.42-1.019-2.77-1.54-4.08-.439-1.1-.841-1.92-1.185-2.63-.048-.1-.107-.19-.154-.29-.024-.03-.036-.06-.059-.09s-.048-.07-.071-.11c-.884-1.35-1.961-1.2-2.773.93-.166.42-.344.83-.51 1.29L17.52 11a44.366 44.366 0 0 1-1.1 2.96 19.428 19.428 0 0 1-1.41 2.79 9.42 9.42 0 0 1-2.039 2.43 4.734 4.734 0 0 1-1.41.78 3.275 3.275 0 0 1-1.552.12 3.911 3.911 0 0 1-1.4-.54 6.376 6.376 0 0 1-1.15-.89 11.647 11.647 0 0 1-1.73-2.17 23.969 23.969 0 0 1-1.3-2.32 45.636 45.636 0 0 1-1.943-4.63C1.386 6.47.614 3.67.069 1.5c-.024-.08-.036-.16-.06-.24a.328.328 0 0 1 .1-.28.338.338 0 0 1 .273-.1.5.5 0 0 1 .13.02.4.4 0 0 1 .225.25C1.507 3.24 2.372 5.7 3.7 8.56a53.034 53.034 0 0 0 2.156 4.17 23.2 23.2 0 0 0 1.3 1.95 9.572 9.572 0 0 0 1.481 1.61 2.79 2.79 0 0 0 1.636.75 2.035 2.035 0 0 0 1.41-.61 7.339 7.339 0 0 0 1.291-1.77 19.273 19.273 0 0 0 1.079-2.38c.308-.8.6-1.68.9-2.68l.486-1.53c.178-.5.368-1.02.581-1.53.244-.58.469-1.1.713-1.56 0-.01.006-.01.008-.02a.061.061 0 0 0 .007-.01 8.694 8.694 0 0 1 1.015-1.52 4.809 4.809 0 0 1 .782-.73 3.028 3.028 0 0 1 1.055-.49 2.385 2.385 0 0 1 1.185.05 3.559 3.559 0 0 1 .983.51 6.414 6.414 0 0 1 1.316 1.43 16.484 16.484 0 0 1 .9 1.5 37.232 37.232 0 0 1 1.375 3.02l.178.42c.569 1.42 1.078 2.84 1.576 4.22l.486 1.33a53.141 53.141 0 0 0 2.263 5.54c.237.45.45.81.64 1.11 1.078 1.7 1.789.19 2-.16a9.621 9.621 0 0 0 .592-1.15 25 25 0 0 0 1.019-2.66 77.115 77.115 0 0 0 1.624-5.68c.474-1.89.912-3.81 1.327-5.7l.083-.41c.178-.79.355-1.6.5-2.37l.462-2.29.047-.22a.94.94 0 0 1 1.849.24v.02z" fill="#fff" fill-rule="evenodd"></path>
  </symbol>
  <symbol xmlns="http://www.w3.org/2000/svg" viewBox="0 0 32 37" id="after-install-4">
    <path d="M30.451 15.46l-.613.01v9.44h.608A1.57 1.57 0 0 0 32 23.33v-6.28a1.57 1.57 0 0 0-1.549-1.59zm-28.815 0A1.655 1.655 0 0 0 0 17.13v6.11a1.658 1.658 0 0 0 1.64 1.67h.609v-9.44zm26.789 11.1V16.8a11.077 11.077 0 0 0-.2-2.1c-.044-.23-.095-.46-.153-.68v-1.76a12.03 12.03 0 1 0-24.055 0v1.18c-.055.17-.107.35-.154.53a11.021 11.021 0 0 0-.368 2.83v11.57a.818.818 0 0 0 .807.83h2.493a9.414 9.414 0 0 0 17.678 2.63 5.31 5.31 0 0 0 4.9-5.27h-.949zm-5.287.78a7.221 7.221 0 0 1-.287 2.03h-5.914a1.235 1.235 0 0 0 0 2.47h4.645a6.985 6.985 0 0 1-5.493 2.69 7.125 7.125 0 0 1-7.05-7.19v-7.85a14.579 14.579 0 0 0 3.643-3.23 17.664 17.664 0 0 0 10.456 3.75v7.33zm-5.363-21.4h-3.631a10.464 10.464 0 0 0-7.028 2.71 9.543 9.543 0 0 1 17.945.23 10.523 10.523 0 0 0-7.286-2.94zM13.58 21.81h-1.937a1.235 1.235 0 0 0 0 2.47h1.937a1.235 1.235 0 0 0 0-2.47zm6.777 0H18.42a1.235 1.235 0 0 0 0 2.47h1.937a1.235 1.235 0 0 0 0-2.47z" fill="#fff" fill-rule="evenodd"></path>
  </symbol>
  <symbol xmlns="http://www.w3.org/2000/svg" viewBox="0 0 35.969 35.97" id="after-install-5">
    <path d="M35.855 15.97a1.173 1.173 0 0 0-1.158-.88 3.977 3.977 0 0 1-2.72-6.92 1 1 0 0 0 .11-1.36 17.948 17.948 0 0 0-2.852-2.88 1 1 0 0 0-1.368.11 4.148 4.148 0 0 1-4.489 1.01 4 4 0 0 1-2.431-3.91 1 1 0 0 0-.883-1.05 18.281 18.281 0 0 0-4.05-.01 1.006 1.006 0 0 0-.891 1.03 4 4 0 0 1-2.465 3.84 4.173 4.173 0 0 1-4.455-1.01 1 1 0 0 0-1.359-.12A18.191 18.191 0 0 0 3.933 6.7a1 1 0 0 0 .107 1.37 3.985 3.985 0 0 1 1.006 4.49 4.157 4.157 0 0 1-3.916 2.43.982.982 0 0 0-1.04.89 17.987 17.987 0 0 0-.007 4.09 1.192 1.192 0 0 0 1.18.89 3.951 3.951 0 0 1 3.7 2.46 4 4 0 0 1-1.007 4.45 1 1 0 0 0-.109 1.36 18.246 18.246 0 0 0 2.847 2.88 1.007 1.007 0 0 0 1.37-.11 4.149 4.149 0 0 1 4.487-1.01 3.992 3.992 0 0 1 2.435 3.91 1 1 0 0 0 .883 1.05 17.963 17.963 0 0 0 2.074.12 18.693 18.693 0 0 0 1.976-.11 1 1 0 0 0 .891-1.03 4 4 0 0 1 2.463-3.84 4.157 4.157 0 0 1 4.457 1.02 1.014 1.014 0 0 0 1.359.11A18.024 18.024 0 0 0 32 29.24a1 1 0 0 0-.107-1.37 3.986 3.986 0 0 1-1.008-4.49 4.028 4.028 0 0 1 3.682-2.44l.222.01a1.007 1.007 0 0 0 1.054-.88 18.017 18.017 0 0 0 .012-4.1zM17.969 28.35a10.38 10.38 0 1 1 8.909-5.06l-4.544-4.54a6.384 6.384 0 0 0 .5-2.49 6.346 6.346 0 0 0-8.039-6.13.707.707 0 0 0-.5.5.715.715 0 0 0 .2.69s2.243 2.26 2.993 3.01a.454.454 0 0 1 .068.33l-.007.05a14.377 14.377 0 0 1-.342 2.2c-.016.01-.032.03-.048.04a.261.261 0 0 1-.05.05 13.917 13.917 0 0 1-2.23.35h-.037a.039.039 0 0 1-.036.01.491.491 0 0 1-.345-.15c-.781-.78-2.936-2.92-2.936-2.92a.738.738 0 0 0-.524-.23.71.71 0 0 0-.671.54 6.369 6.369 0 0 0 8.625 7.52l4.593 4.6a10.341 10.341 0 0 1-5.579 1.63z" fill="#fff" fill-rule="evenodd"></path>
  </symbol>
  <symbol xmlns="http://www.w3.org/2000/svg" viewBox="0 0 32 29" id="after-install-6">
    <path d="M20.6 26.54h-3.378v-2.96H14.78v2.96H11.4a1.23 1.23 0 0 0 0 2.46h9.2a1.23 1.23 0 0 0 0-2.46zm-2.32-7.05H0v1.47a.964.964 0 0 0 .963.97h30.074a.964.964 0 0 0 .963-.97v-1.47H18.279zM31.037 0H.963A.971.971 0 0 0 0 .97v16.88h2.252A13.82 13.82 0 0 1 16 4.25a13.559 13.559 0 0 1 7.078 1.98l.807-1.11a.8.8 0 0 1 1.138-.18.828.828 0 0 1 .176 1.15l-.778 1.07a13.906 13.906 0 0 1 5.327 10.69H32V.97a.971.971 0 0 0-.963-.97zm-8.146 16.97a7.048 7.048 0 0 0-2.462-4.31L18 16a3.166 3.166 0 0 1 .9 1.3h4.123a.853.853 0 0 1-.132-.33zM16 11.07a6.965 6.965 0 0 0-5.1 2.22l-.018.03a.662.662 0 0 1-.143.15 7.091 7.091 0 0 0-1.632 3.5.851.851 0 0 1-.133.33H13.1a3.1 3.1 0 0 1 2.9-2.04 2.726 2.726 0 0 1 .5.04l2.556-3.52A6.969 6.969 0 0 0 16 11.07zm12.1 6.23a12.244 12.244 0 0 0-4.637-8.81l-2.075 2.86c.072.05.143.11.213.17a8.71 8.71 0 0 1 2.9 5.18.825.825 0 0 1-.134.6H28.1zm-20.594-.6a8.7 8.7 0 0 1 1.55-3.71l-2.83-2.07c0-.01-.006-.01-.009-.01a12.23 12.23 0 0 0-2.309 6.39H7.64a.821.821 0 0 1-.14-.6zm-.239-7.05l2.876 2.11q.129-.12.264-.24a8.564 8.564 0 0 1 4.783-2.05V5.92a12.06 12.06 0 0 0-7.927 3.73zm9.551-3.73v3.55a8.6 8.6 0 0 1 3.209.97l2.089-2.88a11.989 11.989 0 0 0-5.302-1.64z" fill="#fff" fill-rule="evenodd"></path>
  </symbol>
</svg>