<svg xmlns="http://www.w3.org/2000/svg" xmlns:xlink="http://www.w3.org/1999/xlink" viewBox="0 0 113 27.38"><defs><style>.cls-1{fill:#393f6b;}.cls-2{fill:url(#linear-gradient);}</style><linearGradient id="linear-gradient" x1="-2" y1="-27.04" x2="20.4" y2="-27.04" gradientTransform="translate(2 38)" gradientUnits="userSpaceOnUse"><stop offset="0" stop-color="#5bc2b2"/><stop offset="1" stop-color="#2b2f81"/></linearGradient></defs><g id="Слой_2" data-name="Слой 2"><g id="Layer_1" data-name="Layer 1"><path class="cls-1" d="M51.22,11.24a6.78,6.78,0,0,1,7,7,9.1,9.1,0,0,1-.08,1,.7.7,0,0,1-.69.65H46.34a5.39,5.39,0,0,0,5.14,5,7.31,7.31,0,0,0,3.81-1.16c.54-.3.77-.5,1.07-.07l.66.88c.27.35.42.58-.16,1a9.52,9.52,0,0,1-5.64,1.77c-4.65,0-7.54-3.65-7.54-8.07S46.57,11.24,51.22,11.24Zm4.3,6.57a4.44,4.44,0,0,0-4.3-4.23,4.79,4.79,0,0,0-4.85,4.23Z"/><path class="cls-1" d="M62.4.83A.75.75,0,0,1,63.13.1h1.19a.75.75,0,0,1,.73.73V12.24a8.2,8.2,0,0,1,4.11-1c4.61,0,7.38,3.53,7.38,8s-3.08,8.11-7,8.11a6.85,6.85,0,0,1-4.72-2l-.23,1a.7.7,0,0,1-.66.61h-.8a.75.75,0,0,1-.73-.73ZM69.27,25c2.81,0,4.58-2.66,4.58-5.65s-1.69-5.5-5-5.5a8.17,8.17,0,0,0-3.72.93v7.68A5.18,5.18,0,0,0,69.27,25Z"/><path class="cls-1" d="M80.34,2.71a1.83,1.83,0,1,1,1.81,1.8A1.8,1.8,0,0,1,80.34,2.71Zm.54,9.64a.75.75,0,0,1,.73-.73H82.8a.76.76,0,0,1,.73.73V26.26a.75.75,0,0,1-.73.73H81.61a.75.75,0,0,1-.73-.73Z"/><path class="cls-1" d="M89,12.35a.75.75,0,0,1,.73-.73h.73a.57.57,0,0,1,.61.46l.35,1.2a7,7,0,0,1,5-2,5.39,5.39,0,0,1,4.92,2.5,9.33,9.33,0,0,1,5.72-2.5c4.46,0,6,2.92,6,6.91v8.11a.75.75,0,0,1-.73.73H111a.75.75,0,0,1-.73-.73V18.15c0-2.88-1.23-4.34-3.46-4.34A6.88,6.88,0,0,0,102.16,16a12.19,12.19,0,0,1,.2,2.19v8.11a.75.75,0,0,1-.73.73H100.4a.75.75,0,0,1-.73-.73V18.15c0-2.92-1.31-4.34-3.65-4.34A5.93,5.93,0,0,0,91.64,16V26.26a.75.75,0,0,1-.73.73H89.72a.75.75,0,0,1-.73-.73Z"/><path class="cls-2" d="M17.55,5.21c-.26.49-.5,1-.76,1.62s-.42,1.08-.6,1.6L15.69,10c-.32,1-.62,2-.95,2.79a19.91,19.91,0,0,1-1.13,2.48,7.34,7.34,0,0,1-1.35,1.85,2.15,2.15,0,0,1-1.48.63A3,3,0,0,1,9.06,17a10,10,0,0,1-1.55-1.67c-.45-.6-.91-1.28-1.37-2C5.38,12,4.62,10.53,3.88,8.94,2.49,6,1.58,3.38.77,1.21h0A.44.44,0,0,0,.53,1a.32.32,0,0,0-.14,0A.35.35,0,0,0,.11,1a.35.35,0,0,0-.11.3c0,.08.05.16.07.25C.65,3.83,1.44,6.75,2.6,9.94a45.89,45.89,0,0,0,2,4.83A25.47,25.47,0,0,0,6,17.19a12.35,12.35,0,0,0,1.81,2.27,7.48,7.48,0,0,0,1.2.93,4,4,0,0,0,1.47.55,3.35,3.35,0,0,0,1.63-.12A4.53,4.53,0,0,0,13.59,20a10.21,10.21,0,0,0,2.14-2.54,23.08,23.08,0,0,0,1.48-2.92c.39-.92.77-1.93,1.15-3.08l.5-1.42c.17-.46.36-.9.53-1.34.88-2.31,2.07-2.4,3-.83A5.06,5.06,0,0,0,17.55,5.21Z"/><path class="cls-1" d="M41,0a1,1,0,0,0-1,.73L40,1l-.49,2.4c-.15.79-.33,1.63-.52,2.47l-.09.42c-.43,2-.89,4-1.39,5.95s-1.1,4.11-1.7,5.93a27.73,27.73,0,0,1-1.07,2.78,9.13,9.13,0,0,1-.62,1.21c-.23.35-1,1.93-2.1.16-.19-.31-.42-.68-.67-1.16A56.82,56.82,0,0,1,29,15.35L28.44,14c-.52-1.44-1.06-2.92-1.65-4.4l-.18-.45c-.39-.93-.86-2-1.45-3.14a13.34,13.34,0,0,0-.95-1.56,6.45,6.45,0,0,0-1.38-1.49,3.42,3.42,0,0,0-1-.53,2.45,2.45,0,0,0-1.23-.05,3.05,3.05,0,0,0-1.11.5,5,5,0,0,0-.82.76,9,9,0,0,0-1.08,1.61A5.06,5.06,0,0,1,22.4,7.88l.06.09c.05.1.11.2.16.31C23,9,23.4,9.88,23.86,11c.55,1.37,1.07,2.78,1.61,4.26l.68,1.83c.35.93.76,2,1.21,3.14.36.86.84,2,1.45,3.13a17,17,0,0,0,.94,1.56,7.24,7.24,0,0,0,1.35,1.5,3.53,3.53,0,0,0,1,.56,2.49,2.49,0,0,0,1.2.14,2.73,2.73,0,0,0,1.13-.42,3.87,3.87,0,0,0,.85-.71,8.37,8.37,0,0,0,1.14-1.62,16.31,16.31,0,0,0,.78-1.62c.4-1,.76-2,1.14-3.23.67-2.2,1.15-4.36,1.58-6.36.39-1.81.75-3.77,1.16-6.18l.08-.5c.14-.84.27-1.66.4-2.52l.36-2.57L42,1.06V1A1,1,0,0,0,41,0Z"/></g></g></svg>