<svg width="0" height="0" class="hidden">
  <symbol viewBox="0 0 128 128" xmlns="http://www.w3.org/2000/svg" id="icon_twitter">
    <g clip-rule="evenodd" fill-rule="evenodd">
      <path fill="none" d="M0 0h128v128H0z"></path>
      <path d="M128 23.294a51.28 51.28 0 0 1-15.079 4.237c5.424-3.328 9.587-8.606 11.548-14.892a51.718 51.718 0 0 1-16.687 6.526c-4.778-5.231-11.608-8.498-19.166-8.498-14.493 0-26.251 12.057-26.251 26.927 0 2.111.225 4.16.676 6.133-21.824-1.126-41.17-11.835-54.131-28.145a27.422 27.422 0 0 0-3.554 13.552c0 9.338 4.636 17.581 11.683 22.412-4.297-.131-8.355-1.356-11.901-3.359v.331c0 13.051 9.053 23.937 21.074 26.403-2.201.632-4.523.948-6.92.948-1.69 0-3.343-.162-4.944-.478 3.343 10.694 13.035 18.483 24.53 18.691-8.986 7.227-20.315 11.533-32.614 11.533-2.119 0-4.215-.123-6.266-.37 11.623 7.627 25.432 12.088 40.255 12.088 48.309 0 74.717-41.026 74.717-76.612a89.39 89.39 0 0 0-.068-3.49A53.862 53.862 0 0 0 128 23.294" fill="#00AAEC"></path>
    </g>
  </symbol>
  <symbol viewBox="0 0 512 512" xmlns="http://www.w3.org/2000/svg" id="icon_fb">
    <path d="M308.3 508.5c-2.5.1-4.1.3-5.7.3-34.2 0-68.3-.1-102.5.1-4.8 0-6.1-1.3-6.1-6.1.1-79.6.1-159.3.1-238.9V257H139v-85h5.4c15 0 30-.1 45 .1 3.8 0 4.8-1.1 4.8-4.8-.2-22.3-.2-44.7 0-67 .1-15.6 2.6-30.8 9.8-44.9 10.3-19.9 26.6-32.8 47.2-40.8 16.8-6.6 34.5-9 52.3-9.3 29-.4 58-.2 87-.3 2.7 0 4.9-.1 4.9 3.7-.1 27.5-.1 55-.1 82.5 0 .3-.1.6-.5 1.9h-5.5c-18 0-36-.1-54 0-10.4 0-18.8 4.2-24.1 13.3-1.6 2.7-2.6 6.2-2.6 9.4-.3 17 0 34-.2 51 0 4 1.2 5.1 5.1 5.1 25-.2 50-.1 75-.1h7.3c-3.5 28.6-6.9 56.6-10.4 84.9h-77.1v251.8z"></path>
  </symbol>
  <symbol viewBox="0 0 512 512" xmlns="http://www.w3.org/2000/svg" id="icon_vk">
    <path d="M250.895 391.347h28.514s8.615-.952 13.004-5.709c4.059-4.364 3.904-12.563 3.904-12.563s-.563-38.366 17.213-44.022c17.508-5.562 39.994 37.091 63.824 53.506 18.014 12.406 31.707 9.688 31.707 9.688l63.736-.899s33.342-2.062 17.535-28.349c-1.279-2.148-9.215-19.437-47.391-54.968-39.967-37.204-34.604-31.164 13.537-95.492 29.32-39.175 41.045-63.101 37.373-73.329-3.49-9.749-25.049-7.175-25.049-7.175l-71.705.421s-5.311-.721-9.273 1.643c-3.854 2.33-6.328 7.716-6.328 7.716s-11.361 30.321-26.512 56.108c-31.945 54.394-44.736 57.267-49.959 53.884-12.141-7.862-9.094-31.642-9.094-48.508 0-52.726 7.965-74.704-15.539-80.385-7.818-1.885-13.541-3.142-33.492-3.348-25.594-.272-47.277.088-59.531 6.097-8.174 4.009-14.47 12.953-10.622 13.459 4.743.629 15.479 2.9 21.178 10.679 7.369 10.017 7.098 32.569 7.098 32.569s4.232 62.048-9.875 69.77c-9.695 5.292-22.962-5.509-51.448-54.883-14.583-25.267-25.618-53.233-25.618-53.233s-2.117-5.197-5.905-7.98c-4.594-3.381-11.039-4.453-11.039-4.453l-68.175.413s-10.234.305-13.992 4.754c-3.338 3.984-.268 12.176-.268 12.176S72.09 274.148 132.522 337.276c55.443 57.87 118.373 54.071 118.373 54.071zm0 0" fill="#1f8eef"></path>
  </symbol>
  <symbol xmlns="http://www.w3.org/2000/svg" viewBox="0 0 24 24" id="icon_skype">
    <path d="M18 6c2.07 2.04 2.85 4.89 2.36 7.55.41.72.64 1.56.64 2.45a5 5 0 0 1-5 5c-.89 0-1.73-.23-2.45-.64-2.66.49-5.51-.29-7.55-2.36-2.07-2.04-2.85-4.89-2.36-7.55C3.23 9.73 3 8.89 3 8a5 5 0 0 1 5-5c.89 0 1.73.23 2.45.64 2.66-.49 5.51.29 7.55 2.36m-5.96 11.16c2.87 0 4.3-1.38 4.3-3.24 0-1.19-.56-2.46-2.73-2.95l-1.99-.44c-.76-.17-1.62-.4-1.62-1.11 0-.72.6-1.22 1.7-1.22 2.23 0 2.02 1.53 3.13 1.53.58 0 1.08-.34 1.08-.93 0-1.37-2.19-2.4-4.05-2.4-2.01 0-4.16.86-4.16 3.14 0 1.1.39 2.27 2.55 2.81l2.69.68c.81.2 1.01.65 1.01 1.07 0 .68-.68 1.35-1.91 1.35-2.41 0-2.08-1.85-3.37-1.85-.58 0-1 .4-1 .97 0 1.11 1.33 2.59 4.37 2.59z"></path>
  </symbol>
</svg>